<svg xmlns="http://www.w3.org/2000/svg" viewBox="0 0 914.33 471.6"><path d="M144,216v-7.22h10.11V151.22H144V144h28.88v7.22H162.77v57.56h10.11V216Zm44.67-72h29.6c11.86,0,19.18,7.32,19.18,18.57,0,10.72-6.91,14.54-11.65,15.26v.62c5.16.31,14.13,4.75,14.13,16.71S232,216,221.36,216H188.67Zm8.66,31.15h19.91c6.81,0,10.93-3.61,10.93-10v-3.51c0-6.4-4.12-10-10.93-10H197.33Zm0,33.22h21.35c7.43,0,12-3.92,12-11.15v-3.5c0-7.22-4.54-11.14-12-11.14H197.33ZM256,144h11.55l20.63,38.78h.52L309.45,144h11.14v72h-8.45V155.35h-.52l-6.09,12.06-17.22,31.36-17.23-31.36L265,155.35h-.52V216H256Zm104,72V144h8.66v64.37H399.3V216Zm89.43,0c-6.09,0-8.56-3.72-9.18-8.67h-.52c-2.27,6.5-7.94,9.91-15.37,9.91-11.24,0-17.84-6.19-17.84-16.1s7.22-15.57,22.69-15.57h10.52v-5.26c0-7.53-4.13-11.66-12.58-11.66-6.4,0-10.63,3.1-13.52,7.94L408.68,172c2.89-5.67,9.29-10.41,18.88-10.41,12.79,0,20.42,6.7,20.42,17.94v29.3h6.09V216Zm-9.7-15.47v-8.77H428.8c-9.39,0-13.62,2.89-13.62,8V202c0,5.26,4.13,8.25,10.52,8.25C433.85,210.22,439.73,206,439.73,200.53Zm26.1-60.86h8.25v31.77h.41c2.79-6.71,8.25-9.9,15.58-9.9,13.3,0,21.66,10.83,21.66,27.85s-8.36,27.85-21.66,27.85c-7.33,0-12.38-3.3-15.58-9.91h-.41V216h-8.25Zm37,54.25v-9.07c0-9.49-5.78-15.89-15.06-15.89-7.53,0-13.72,4.33-13.72,10.21V199c0,6.91,6.19,10.83,13.72,10.83C497.08,209.81,502.86,203.41,502.86,193.92ZM548.76,170h-8.67v-7.22h8.67V152.05c0-7.33,3.82-12.38,11.65-12.38h8.05v7.22H557v15.88h11.45V170H557v46h-8.25Zm26.2,19.4c0-16.92,9.8-27.85,24-27.85s24,10.93,24,27.85-9.8,27.85-24,27.85S575,206.3,575,189.39Zm39.19,3.81v-7.63c0-11.24-6.29-16.71-15.16-16.71s-15.16,5.47-15.16,16.71v7.63c0,11.25,6.29,16.71,15.16,16.71S614.15,204.45,614.15,193.2ZM636.64,216V162.77h8.25v9.8h.52c1.86-5,6.7-9.8,15.37-9.8H664V171h-4.85c-8.87,0-14.24,3.82-14.24,8.88V216ZM138.75,316.4l6.39-5.37c5.05,6.71,11,10.32,19.39,10.32,10.32,0,15.89-5.36,15.89-13.62,0-6.8-3.82-10.21-13.31-12.37L161.23,294c-13.1-3-20.32-8.76-20.32-19.8,0-12.79,9.7-19.7,23.83-19.7,10.83,0,18.46,4.12,23.83,11.76l-6.5,4.74c-3.92-5.47-9.39-8.87-17.74-8.87-9.18,0-14.86,4-14.86,11.76,0,6.81,4.44,9.9,13.52,12l5.87,1.34c14,3.19,20.12,9.38,20.12,20.11,0,13.2-9.28,21.66-24.76,21.66C152.67,329,144.52,324.24,138.75,316.4ZM249,327.74l-7.22-21.24H212.7l-7.22,21.24h-8.76l25.16-72h11l25.17,72Zm-21.56-63.95h-.51l-12.17,35.07h24.86Zm42.6,63.95v-72h28.68c12.89,0,20.11,7.94,20.11,20.63S311.62,297,298.73,297h-20v30.73Zm8.67-38.37h20c6.81,0,10.83-3.71,10.83-10.31v-5.37c0-6.6-4-10.31-10.83-10.31h-20Zm68.8,27,6.39-5.37c5.06,6.71,11,10.32,19.4,10.32,10.31,0,15.88-5.36,15.88-13.62,0-6.8-3.82-10.21-13.31-12.37L370,294c-13.1-3-20.32-8.76-20.32-19.8,0-12.79,9.7-19.7,23.83-19.7,10.83,0,18.47,4.12,23.83,11.76l-6.5,4.74c-3.92-5.47-9.39-8.87-17.74-8.87-9.18,0-14.85,4-14.85,11.76,0,6.81,4.43,9.9,13.51,12l5.88,1.34c14,3.19,20.11,9.38,20.11,20.11,0,13.2-9.28,21.66-24.75,21.66C361.44,329,353.29,324.24,347.52,316.4ZM408,301.13c0-16.92,9.8-27.85,24-27.85s24,10.93,24,27.85S446.23,329,432,329,408,318.05,408,301.13Zm39.2,3.82v-7.63c0-11.25-6.29-16.72-15.16-16.72s-15.17,5.47-15.17,16.72V305c0,11.24,6.3,16.71,15.17,16.71S447.16,316.19,447.16,305Zm31.25,22.79c-5.67,0-8.76-3.61-8.76-8.56V251.41h8.25v69.11h7.84v7.22Zm52.09-8.66h-.41c-2.06,5.05-6.08,9.9-15,9.9-10.93,0-17.94-7.43-17.94-20.32V274.52h8.25v32.7c0,9.49,4.23,14.33,12.17,14.33,6.5,0,12.89-3.19,12.89-10.21V274.52h8.26v53.22H530.5Zm37.55,8.66c-5.67,0-8.77-3.61-8.77-8.76V281.74h-8.77v-7.22h5c3.5,0,4.64-1.24,4.64-4.85v-9.9h7.42v14.75h11.66v7.22H567.53v38.78h10.84v7.22Zm23.52-70.34v-1.34c0-2.79,1.55-4.65,5-4.65s5.06,1.86,5.06,4.65v1.34c0,2.78-1.55,4.64-5.06,4.64S591.57,260.18,591.57,257.4Zm.93,17.12h8.25v53.22H592.5Zm21.86,26.61c0-16.92,9.8-27.85,24-27.85s24,10.93,24,27.85-9.8,27.85-24,27.85S614.36,318.05,614.36,301.13Zm39.2,3.82v-7.63c0-11.25-6.29-16.72-15.16-16.72s-15.16,5.47-15.16,16.72V305c0,11.24,6.29,16.71,15.16,16.71S653.56,316.19,653.56,305Zm22.49,22.79V274.52h8.25v8.66h.41c2.58-6,7.12-9.9,15.06-9.9,10.94,0,17.85,7.43,17.85,20.32v34.14h-8.25V295.05c0-9.49-4.13-14.34-12.07-14.34-6.6,0-13,3.3-13,10.11v36.92Zm53.53-9.18,5.88-4.74c4.13,5.16,9.08,8.15,15.78,8.15,7,0,11.14-3.2,11.14-8.67,0-4.12-2.27-7.32-9.28-8.35l-4.23-.62c-9.8-1.45-17.12-5.47-17.12-15.37,0-10.52,8.15-15.68,19-15.68,8.56,0,14.23,3.2,18.56,8.56l-5.46,5c-2.37-3.3-6.91-6.5-13.72-6.5s-10.42,3.2-10.42,8.26,3.61,7.22,10.21,8.25l4.13.62c11.76,1.75,16.3,6.91,16.3,15,0,10.31-7.53,16.6-19.71,16.6C740.83,329,734.33,324.86,729.58,318.56Z"/></svg>