<svg xmlns="http://www.w3.org/2000/svg" viewBox="0 0 1013.13 360"><path d="M144,216v-7.22h10.11V151.22H144V144h28.88v7.22H162.77v57.56h10.11V216Zm44.66-72h29.6c11.87,0,19.19,7.32,19.19,18.57,0,10.72-6.91,14.54-11.66,15.26v.62c5.16.31,14.14,4.75,14.14,16.71S232,216,221.36,216h-32.7Zm8.66,31.15h19.91c6.81,0,10.94-3.61,10.94-10v-3.51c0-6.4-4.13-10-10.94-10H197.32Zm0,33.22h21.36c7.42,0,12-3.92,12-11.14v-3.51c0-7.22-4.54-11.14-12-11.14H197.32ZM256,144h11.55l20.63,38.78h.52L309.45,144h11.14v72h-8.46V155.35h-.52l-6.08,12.07L288.3,198.77l-17.22-31.35L265,155.35h-.51V216H256Zm99.54,36.52c0-24.35,12.48-37.76,31.87-37.76,13.2,0,21.66,5.37,26.92,16.92l-13.51,7c-1.86-6-5.67-10-13.41-10-9.18,0-15.27,6.19-15.27,17.53v11.56c0,11.34,6.09,17.53,15.27,17.53,7.74,0,12.17-4.85,14.34-10.73L414.56,200c-5.37,10.93-13.93,17.23-27.13,17.23C368,217.24,355.56,204.86,355.56,180.52Zm65.7,8.35c0-17.43,9.49-28.26,25.38-28.26S472,171.44,472,188.87s-9.49,28.37-25.37,28.37S421.26,206.3,421.26,188.87Zm34.87,5.57v-11c0-6.8-3.51-10.72-9.49-10.72s-9.49,3.92-9.49,10.72v11c0,6.81,3.5,10.73,9.49,10.73S456.13,201.25,456.13,194.44ZM482.84,216V161.85h15.27V171h.62c2-5.68,6.5-10.42,15.06-10.42,11,0,16.91,7.84,16.91,21.45V216H515.44V183.3c0-6.91-2-10.32-7.53-10.32-5,0-9.8,2.58-9.8,8V216Zm57-8.46,9-9.08c3.81,4.23,8.45,6.91,14.33,6.91s8-2,8-5.15c0-2.69-1.65-4-5.47-4.54l-5.88-.72c-12.27-1.55-18.25-6.91-18.25-16.71,0-10.42,8.14-17.64,21-17.64,11.34,0,16.61,3.09,22.07,8.46L576,178a18.11,18.11,0,0,0-12.48-5.57c-5.15,0-7.22,1.86-7.22,4.54,0,2.89,1.24,4.43,5.68,5.05l6.08.83c11.76,1.55,17.85,6.91,17.85,16.3,0,10.41-9.29,18.05-23.21,18.05C552.26,217.24,545.45,213.73,539.88,207.54Zm88.4-.62h-.51c-1.86,5.47-6.3,10.32-15.17,10.32-11,0-16.91-7.74-16.91-21.36v-34H611v32.69c0,6.61,2.17,10.32,7.74,10.32,4.74,0,9.59-2.68,9.59-7.84V161.85h15.27V216H628.28ZM672.94,216c-10.41,0-15.16-5.26-15.16-14.85V139.67h15.27v64.47h6.81V216Zm34.56,0c-10.52,0-16.09-5.47-16.09-15.78V173.71h-7.63V161.85h3.81c4.13,0,5.37-2.07,5.37-5.78V147.2h13.71v14.65H717.4v11.86H706.67v30.43h9.91V216Zm19.29-67.46v-2.27c0-4.33,2.68-7.53,8.87-7.53s8.87,3.2,8.87,7.53v2.27c0,4.33-2.68,7.53-8.87,7.53S726.79,152.87,726.79,148.54ZM728,161.85h15.26V216H728ZM757.53,216V161.85h15.26V171h.62c2-5.68,6.5-10.42,15.06-10.42,11,0,16.92,7.84,16.92,21.45V216H790.12V183.3c0-6.91-2-10.32-7.53-10.32-5,0-9.8,2.58-9.8,8V216Zm82.31,21.87c-18.77,0-25.68-4.75-25.68-12.59,0-6,3.81-9.49,10.1-10.31v-1.14a9.16,9.16,0,0,1-7.84-9.49c0-5.67,5.06-8.56,10.11-9.59v-.41c-6.5-3-9.69-8.46-9.69-15.48,0-10.93,7.63-18.25,23.21-18.25a35.85,35.85,0,0,1,9.18,1v-2.06c0-5.68,3-8.15,8.15-8.15h8.56v11.34H854v.62c6.29,3,9.28,8.56,9.28,15.47,0,10.84-7.53,17.95-23.2,17.95a38.44,38.44,0,0,1-9.6-1.13,5.07,5.07,0,0,0-2.37,4.33c0,2.58,1.86,4.13,6.5,4.13h15.68c13.2,0,18.87,5.77,18.87,15.78C869.13,231.37,861.91,237.87,839.84,237.87Zm6.6-20.74H827.87a7,7,0,0,0-2,4.85c0,3.92,3.1,5.78,11.35,5.78h6.19c8.25,0,11.35-1.86,11.35-5.78C854.8,218.89,852.53,217.13,846.44,217.13ZM849,179.38v-1.24c0-4.74-3-7.42-9-7.42s-9,2.68-9,7.42v1.24c0,4.75,3,7.43,9,7.43S849,184.13,849,179.38Z"/></svg>