<?xml version="1.0" encoding="utf-8"?>
<!-- Generator: Adobe Illustrator 24.0.3, SVG Export Plug-In . SVG Version: 6.00 Build 0)  -->
<svg version="1.1" id="Layer_1" xmlns="http://www.w3.org/2000/svg" xmlns:xlink="http://www.w3.org/1999/xlink" x="0px" y="0px"
	 viewBox="0 0 896 504" style="enable-background:new 0 0 896 504;" xml:space="preserve">
<style type="text/css">
	.st0{fill:#010101;}
</style>
<path id="IBM_x5F_Power_x5F_Systems" class="st0" d="M71.7,281.7v-5.9h8.2v-46.9h-8.2V223h23.5v5.9h-8.2v46.9h8.2v5.9H71.7z
	 M108,223h24.1c9.7,0,15.6,6,15.6,15.1c0,8.7-5.6,11.8-9.5,12.4v0.5c4.2,0.3,11.5,3.9,11.5,13.6c0,9.7-6.5,17-15.1,17H108V223z
	 M115.1,248.4h16.2c5.5,0,8.9-2.9,8.9-8.1v-2.9c0-5.2-3.4-8.1-8.9-8.1h-16.2V248.4z M115.1,275.5h17.4c6,0,9.7-3.2,9.7-9.1v-2.9
	c0-5.9-3.7-9.1-9.7-9.1h-17.4V275.5z M162.9,223h9.4l16.8,31.6h0.4l16.9-31.6h9.1v58.6h-6.9v-49.4h-0.4l-5,9.8l-14,25.5l-14-25.5
	l-5-9.8h-0.4v49.4h-6.9V223z M246.2,281.7V223H274c10.9,0,17.8,7.6,17.8,18.7c0,11.1-6.9,18.7-17.8,18.7h-15v21.2H246.2z M259,249.4
	h13.4c3.8,0,6.1-2,6.1-5.8v-3.7c0-3.8-2.4-5.8-6.1-5.8H259V249.4z M296.2,259.6c0-14.2,7.7-23,20.7-23c12.9,0,20.7,8.8,20.7,23
	c0,14.2-7.7,23.1-20.7,23.1C303.9,282.7,296.2,273.8,296.2,259.6z M324.6,264.1v-9c0-5.5-2.9-8.7-7.7-8.7c-4.9,0-7.7,3.2-7.7,8.7v9
	c0,5.5,2.9,8.7,7.7,8.7C321.8,272.8,324.6,269.7,324.6,264.1z M341.3,237.6h12l4.3,17.8l3,13.4h0.3l3.5-13.4l5-17.8h11.3l5.1,17.8
	l3.6,13.4h0.3l3-13.4l4.3-17.8h11.5l-12.2,44.1h-13l-5.4-18.7l-3.1-11.4h-0.3l-3,11.4l-5.4,18.7h-12.8L341.3,237.6z M412.6,259.6
	c0-13.9,7.4-23,20.7-23c14.6,0,20.5,10.6,20.5,22.5v3.7h-28.3v0.7c0,5.8,3.1,9.5,9.7,9.5c5.2,0,8.1-2.4,10.8-5.3l6.2,7.7
	c-3.9,4.5-10.4,7.3-18.5,7.3C420.2,282.7,412.6,273.7,412.6,259.6z M425.4,254.8v0.7h15.5v-0.8c0-5.4-2.4-9-7.4-9
	S425.4,249.3,425.4,254.8z M462.6,281.7v-44.1H475v9.6h0.4c1-4.9,4.4-9.6,11.3-9.6h2.2v11.6h-3.1c-7.2,0-10.8,1.6-10.8,6.7v25.8
	H462.6z M510.4,273.2l8.4-8.5c3.9,4.5,9,6.7,14.7,6.7c6.2,0,9.2-2.8,9.2-7.1c0-3.2-1.3-5.5-6.8-6.3l-5.8-0.8
	c-12.3-1.6-18-7.6-18-17.5c0-10.5,8.2-17.8,22-17.8c8.8,0,15.5,2.9,20.3,8.2l-8.5,8.6c-2.8-3.3-6.6-5.5-12.6-5.5
	c-5.7,0-8.5,2.2-8.5,5.7c0,4,2.1,5.5,7,6.3l5.8,0.9c12,1.9,17.8,7.3,17.8,17.4c0,11.3-8.2,19.1-22.9,19.1
	C522.4,282.7,515.4,278.7,510.4,273.2z M592.4,237.6h11.6l-17,50.9c-2.3,6.8-6,10-13.5,10h-7.7v-9.7h8.3l1.5-4.9l-15.5-46.4h12.3
	l6.5,20.6l3.2,12.8h0.5l3.3-12.8L592.4,237.6z M605.9,274.8l7.3-7.4c3.1,3.4,6.9,5.6,11.7,5.6c4.9,0,6.6-1.6,6.6-4.2
	c0-2.2-1.3-3.3-4.5-3.7l-4.8-0.6c-10-1.3-14.9-5.6-14.9-13.6c0-8.5,6.6-14.4,17.1-14.4c9.2,0,13.5,2.5,18,6.9l-7.1,7.3
	c-2.8-2.8-6.5-4.5-10.2-4.5c-4.2,0-5.9,1.5-5.9,3.7c0,2.4,1,3.6,4.6,4.1l5,0.7c9.6,1.3,14.5,5.6,14.5,13.3c0,8.5-7.6,14.7-18.9,14.7
	C616,282.7,610.4,279.8,605.9,274.8z M666.6,281.7c-8.6,0-13.1-4.5-13.1-12.9v-21.6h-6.2v-9.7h3.1c3.4,0,4.4-1.7,4.4-4.7v-7.2h11.2
	v11.9h8.7v9.7h-8.7V272h8.1v9.7H666.6z M680.2,259.6c0-13.9,7.4-23,20.7-23c14.6,0,20.5,10.6,20.5,22.5v3.7h-28.3v0.7
	c0,5.8,3.1,9.5,9.7,9.5c5.2,0,8.1-2.4,10.8-5.3l6.2,7.7c-3.9,4.5-10.4,7.3-18.5,7.3C687.9,282.7,680.2,273.7,680.2,259.6z
	 M693.1,254.8v0.7h15.5v-0.8c0-5.4-2.4-9-7.4-9S693.1,249.3,693.1,254.8z M730.2,281.7v-44.1h12.4v7.5h0.5c1.6-4.7,5.3-8.5,11.8-8.5
	c6,0,10.4,3.1,12.3,8.9h0.3c1.6-5,6.7-8.9,13.4-8.9c8.5,0,13.2,6.4,13.2,17.5v27.6h-12.4V255c0-5.7-1.9-8.4-6-8.4
	c-3.7,0-7.3,2.1-7.3,6.5v28.6H756V255c0-5.7-2-8.4-6-8.4c-3.6,0-7.3,2.1-7.3,6.5v28.6H730.2z M801.7,274.8l7.3-7.4
	c3.1,3.4,6.9,5.6,11.7,5.6c4.9,0,6.6-1.6,6.6-4.2c0-2.2-1.3-3.3-4.5-3.7l-4.8-0.6c-10-1.3-14.9-5.6-14.9-13.6
	c0-8.5,6.6-14.4,17.1-14.4c9.2,0,13.5,2.5,18,6.9l-7.1,7.3c-2.8-2.8-6.5-4.5-10.2-4.5c-4.2,0-5.9,1.5-5.9,3.7c0,2.4,1,3.6,4.6,4.1
	l5,0.7c9.6,1.3,14.5,5.6,14.5,13.3c0,8.5-7.6,14.7-18.9,14.7C811.8,282.7,806.2,279.8,801.7,274.8z"/>
</svg>
