<?xml version="1.0" encoding="utf-8"?>
<!-- Generator: Adobe Illustrator 19.2.1, SVG Export Plug-In . SVG Version: 6.00 Build 0)  -->
<svg version="1.1" id="layer" xmlns="http://www.w3.org/2000/svg" xmlns:xlink="http://www.w3.org/1999/xlink" x="0px" y="0px"
	 viewBox="0 0 400 400" style="enable-background:new 200 200 200 200;" xml:space="preserve">
<style type="text/css">
	.st0{fill:#EE0000;}
</style>
<path class="st0" d="M144.9,331.3c12.3,0,30-2.5,30-17.1c0-1.1-0.1-2.3-0.3-3.4l-7.3-31.7c-1.7-7-3.2-10.1-15.4-16.3
	c-9.5-4.9-30.2-12.9-36.4-12.9c-5.7,0-7.4,7.4-14.2,7.4c-6.6,0-11.4-5.5-17.5-5.5c-5.9,0-9.7,4-12.7,12.3c0,0-8.2,23.3-9.3,26.6
	c-0.2,0.6-0.2,1.3-0.2,1.9C61.6,301.6,97.2,331.2,144.9,331.3 M176.8,320.1c1.7,8,1.7,8.9,1.7,9.9c0,13.7-15.4,21.3-35.7,21.3
	c-45.9,0-86-26.8-86-44.6c0-2.5,0.5-4.9,1.5-7.2c-16.5,0.8-37.8,3.8-37.8,22.6c0,30.9,73.1,68.9,131.1,68.9
	c44.4,0,55.6-20.1,55.6-35.9C207.1,342.7,196.3,328.5,176.8,320.1"/>
<path d="M176.8,320.1c1.7,8,1.7,8.9,1.7,9.9c0,13.7-15.4,21.3-35.7,21.3c-45.9,0-86-26.8-86-44.6c0-2.5,0.5-4.9,1.5-7.2l3.6-8.9
	c-0.2,0.6-0.2,1.2-0.2,1.9c0,9,35.6,38.7,83.3,38.7c12.3,0,30-2.5,30-17.1c0-1.1-0.1-2.3-0.3-3.4L176.8,320.1z"/>
</svg>
