<?xml version="1.0" encoding="UTF-8"?>
<!DOCTYPE svg PUBLIC "-//W3C//DTD SVG 1.1//EN" "http://www.w3.org/Graphics/SVG/1.1/DTD/svg11.dtd">
<svg version="1.1" xmlns="http://www.w3.org/2000/svg" xmlns:xlink="http://www.w3.org/1999/xlink" x="0" y="0" width="180" height="120" viewBox="0, 0, 180, 120">
  <g id="Layer_1">
    <path d="M144.823,47.49 C144.051,46.691 142.775,46.691 142.003,47.491 C141.135,48.358 141.237,49.854 142.317,50.57 C142.974,51.006 143.852,51.006 144.51,50.57 C145.587,49.854 145.691,48.357 144.823,47.49 M142.244,40.71 C136.917,39.461 132.13,44.248 133.38,49.575 C134.015,52.287 136.17,54.441 138.884,55.078 C144.212,56.33 149.002,51.538 147.749,46.209 C147.11,43.496 144.956,41.343 142.244,40.71 M107.064,70.709 C103.591,69.425 102.249,69.683 97.809,69.742 C94.733,69.782 94.621,69.679 91.109,69.679 C90.025,69.679 89.624,74.878 93.55,75.958 C95.269,76.431 97.125,76.729 98.417,78.051 C98.989,78.635 99.312,79.517 97.989,79.517 L88.243,79.517 C86.537,79.517 84.928,79.557 83.625,78.453 C81.656,76.791 80.737,74.502 79.754,72.231 C78.731,69.869 77.629,67.545 76.335,65.322 C73.76,60.898 70.359,56.895 65.794,54.45 C60.093,51.394 50.421,49.877 42.762,55.759 C34.691,61.957 36.421,73.567 43.48,79.245 C46.268,81.489 49.903,82.428 53.475,82.217 C60.457,81.811 65.606,76.665 64.328,70.333 C63.901,68.213 62.665,66.207 60.802,65.113 C59.477,64.339 57.909,64.063 56.373,64.06 C54.725,64.057 52.97,64.397 51.785,65.544 C50.383,66.902 50.155,69.3 51.276,70.9 C51.897,71.785 52.907,72.533 52.735,73.688 C52.618,74.469 51.974,75.049 51.205,75.22 C49.896,75.512 48.698,74.767 47.813,73.855 C45.544,71.517 44.834,67.797 46.082,64.788 C47.715,60.847 52.256,58.678 56.518,58.819 C62.014,59.004 67.194,62.63 69.448,67.647 C71.702,72.664 71.027,78.822 67.921,83.364 C61.019,93.45 43.976,92.259 36.057,83.754 C31.091,78.417 28.391,73.238 28.769,63.594 C29.035,56.78 32.969,50.069 37.981,45.345 C46.148,37.649 56.904,32.386 67.847,30.116 C74.494,28.745 81.356,28.422 88.104,29.095 C94.053,29.687 99.97,30.777 105.688,32.547 C108.526,33.432 111.319,34.482 114.021,35.723 C116.403,36.817 119.526,38.008 121.38,39.897 C121.38,36.477 121.247,32.719 121.247,30.102 C121.247,29.103 122.296,28.429 123.194,28.855 C127.065,30.652 136.232,34.983 142.345,37.777 C150.54,41.522 151.12,50.356 151.407,58.185 C151.414,58.36 151.42,58.541 151.341,58.698 C151.085,59.234 149.704,59.088 149.197,59.094 C148.216,59.105 146.739,59.099 145.761,59.142 C143.803,59.229 141.898,59.193 139.942,59.094 C136.325,58.919 132.827,57.307 130.485,55.346 C130.251,55.15 129.495,54.935 129.14,55.306 C128.771,55.687 128.895,56.283 129.097,56.488 C130.439,57.843 131.896,58.719 133.59,59.595 C135.741,60.699 138.088,60.979 140.467,61.117 C143.015,61.268 145.581,61.231 148.122,60.97 C150.244,60.753 150.794,60.608 148.7,62.164 C146.858,63.53 144.725,64.513 142.558,65.241 C139.455,66.297 136.175,66.821 132.902,66.912 C130.919,66.965 128.933,66.861 126.965,66.605 C125.948,66.478 124.937,66.295 123.915,66.19 C123.085,66.107 122.224,65.952 121.398,66.13 C120.649,66.295 119.953,66.7 119.482,67.311 C118.834,68.156 118.61,70.478 118.986,71.483 C119.709,73.433 121.297,74.566 122.975,75.565 C124.792,76.646 127.182,77.014 127.647,79.081 C127.744,79.514 123.881,79.524 123.443,79.517 L118.299,79.517 C118.299,79.517 115.504,79.584 114.417,79.188 C114.38,79.177 114.351,79.161 114.319,79.144 C113.726,78.826 113.469,78.034 113.269,77.434 C112.983,76.589 112.478,75.743 111.867,74.868 C110.706,73.211 108.92,71.396 107.064,70.709 M146.003,47.89 C146.003,50.905 143.564,53.344 140.549,53.344 C137.537,53.344 135.099,50.905 135.099,47.89 C135.099,44.88 137.537,42.438 140.549,42.438 C143.564,42.438 146.003,44.88 146.003,47.89" fill="#30BA78"/>
  </g>
</svg>
